# xmcd
#
# Track frame offsets: 
#        150
#        37503
#        87858
#        136663
#        175493
#        218298
#        254493
#        279578
#
# Disc length: 4232 seconds
#
# Revision: 1
# Processed by: cddbd v1.5.2PL0 Copyright (c) Steve Scherf et al.
# Submitted via: ExactAudioCopy v0.95b4
#
DISCID=60108608
DTITLE=Tad Shull - Deep Passion
DYEAR=1990
DGENRE=Jazz
TTITLE0=TADPOLE
TTITLE1=BIG EARS
TTITLE2=JUNE NIGHT
TTITLE3=WHY
TTITLE4=SOUL STIRRIN'
TTITLE5=THE BREEZE AND I
TTITLE6=DEEP PASSION
TTITLE7=THE ELDORADO SHUFFLE
EXTD=YEAR: 1990
EXTT0=
EXTT1=
EXTT2=
EXTT3=
EXTT4=
EXTT5=
EXTT6=
EXTT7=
PLAYORDER=
